<svg id="Layer_1" data-name="Layer 1" xmlns="http://www.w3.org/2000/svg" xmlns:xlink="http://www.w3.org/1999/xlink" viewBox="0 0 238.94 112.5"><defs><style>.cls-1,.cls-10,.cls-11,.cls-2,.cls-3,.cls-4,.cls-5,.cls-6,.cls-7,.cls-8,.cls-9{stroke:#000;stroke-miterlimit:10;}.cls-1{stroke-width:3px;fill:url(#linear-gradient);}.cls-2{fill:#550d9c;}.cls-10,.cls-11,.cls-2,.cls-3,.cls-4,.cls-5,.cls-6,.cls-7,.cls-8,.cls-9{stroke-width:0.75px;}.cls-3{fill:#ae30b5;}.cls-4{fill:#ce29af;}.cls-5{fill:#7736a8;}.cls-6{fill:#c900df;}.cls-7{fill:#a036a8;}.cls-8{fill:#d82197;}.cls-9{fill:#ac36ca;}.cls-10{fill:#ff0081;}.cls-11{fill:#ff0ae6;}</style><linearGradient id="linear-gradient" x1="21.92" y1="291.95" x2="257.87" y2="291.95" gradientUnits="userSpaceOnUse"><stop offset="0" stop-color="aqua"/><stop offset="1" stop-color="blue"/></linearGradient></defs><path class="cls-1" d="M23,327.91c-2.83-9.94.22-21.43,7.9-28.34s19.71-8.66,28.85-3.83L57.84,267.5c-.24-3.61-.08-8,3.07-9.79a8.85,8.85,0,0,1,5-.73c5.3.32,10.62,1.45,15.87.67s10.63-4.12,11.66-9.33l2.75,13.49c1,4.91,3.06,10.87,8,11.51s8.41-4.49,10.67-8.91l7.22-14.16c2.67-5.23,6.68-11.27,12.53-10.79,4.11.33,7.11,3.84,10.61,6,8,5,19.81,2,24.44-6.23.14,16.7,16.86,30.3,15.52,46.94a106.61,106.61,0,0,1,25.62-22.44c9.45-5.9,21.79-10.24,31.39-4.61a26.21,26.21,0,0,1,8.2,8.3,47.22,47.22,0,0,1,6.55,15c1.27,5.29,1.54,11.17-1.19,15.88-3,5.2-9.27,7.94-15.28,7.92s-11.79-2.41-16.94-5.5a3.83,3.83,0,0,0-2.61-.81,3.67,3.67,0,0,0-1.95,1.58c-4.93,6.39-10.08,13.37-10.33,21.44-.13,4.27,1.1,8.85-.93,12.61S201.13,340.86,197,342c-6.9,1.84-14.29,3.45-21.05,1.17-2-.68-4-1.7-6.09-1.65a14.87,14.87,0,0,0-4.3,1.09,38.29,38.29,0,0,1-11.62,2.07c-5.12.11-10.2-.8-15.28-1.48A167.71,167.71,0,0,0,98,342.71c-1.51.16-3.21.29-4.36-.7a5.52,5.52,0,0,1-1.4-2.81q-2.27-8.35-4.19-16.79c-8.57,9.42-19.1,17.79-31.57,20.35s-27-2.11-33-13.37Z" transform="translate(-20.42 -233.65)"/><path class="cls-2" d="M75.15,268.56c10.27,2.57,11.41-4.49,11.41-4.49s4.51,67-37.56,70.54c-31,2.59-18.32-32.56-4.21-32.56,19.27,0-5.42,29.54-3,29.54C94.81,331.59,55.91,263,75.15,268.56Z" transform="translate(-20.42 -233.65)"/><path class="cls-3" d="M88.76,275c0,6.6.06,6.67-1.51,12.93C91.93,297,100.6,324.05,99,331.59c.71-1.32,7.45-18.4,5-21.82C92.91,294,88.82,275.65,88.76,274.94Z" transform="translate(-20.42 -233.65)"/><path class="cls-4" d="M100.38,301.67s13-4.22,18-21.11c18.82-63.48,31.91-6.25,24.59,38.37,0,0-5.8-6.84-5.72-14.77,3-14.77,6.74-40.78-8.36-23.1-3.92,4.58-20.54,24.73-22.81,27.41C104.3,308.17,100.38,301.67,100.38,301.67Z" transform="translate(-20.42 -233.65)"/><path class="cls-5" d="M137.76,277.6" transform="translate(-20.42 -233.65)"/><path class="cls-5" d="M146.47,283.23" transform="translate(-20.42 -233.65)"/><path class="cls-5" d="M138.63,290.65" transform="translate(-20.42 -233.65)"/><path class="cls-5" d="M170.49,325.83" transform="translate(-20.42 -233.65)"/><path class="cls-5" d="M175.23,319.84" transform="translate(-20.42 -233.65)"/><path class="cls-6" d="M176.34,321.69c2.4-6.37,2.47-14.21,2.47-21.45,0-15.48-11.73-28-26.21-28a25.71,25.71,0,0,0-7.22.9s0,.61.6,9.05c2.41-1.21,6.91-1.76,10.94-1.76,12.09,0,21.89,9.27,21.89,20.71,0,5.7-.68,13-3.58,18.73Z" transform="translate(-20.42 -233.65)"/><path class="cls-5" d="M176.34,321.69" transform="translate(-20.42 -233.65)"/><path class="cls-7" d="M170.85,329.21" transform="translate(-20.42 -233.65)"/><path class="cls-8" d="M170.07,326.17c-2.82,2.74-6.57,3.37-11.94,3-14.53-1-23.24-16.64-23.1-28.07.11-8.1,2.44-9.4,3-10.46,1.32-13.92-.88-13-.88-13-4.42,1.54-15.26,9.38-15.26,22.64,0,25.32,15.06,34.86,33.73,34.37,7.37-.2,12-2.41,15.23-5.4Z" transform="translate(-20.42 -233.65)"/><path class="cls-9" d="M127.31,324.36s3.61,4.22,5.42,5.42c-4.22,2.42-19.88,3-19.88,3s6.52-1.38,10.24-3.62A11.07,11.07,0,0,0,127.31,324.36Z" transform="translate(-20.42 -233.65)"/><path class="cls-10" d="M153.21,281.55c8.43-.6,12,1.81,12,1.81s7.23,35,10.85,41c3-3.62,30.37-51.21,44-54.07,23.82-5,30,18.17,21.56,19.85-12.56,2.5-19.94-7.28-22-14-5,18-31.57,25.89-39.27,47.6-3,8.55,4.79,9.78,9,4.83,3.61-4.22,0-6-5.42-3,.6-3.61,6.37-12.55,12-1.2,1.21,2.41,1.21,9.64-11.44,10.25-4.21.2-10.84.6-13.25-9.05A165.76,165.76,0,0,0,153.21,281.55Z" transform="translate(-20.42 -233.65)"/><path class="cls-11" d="M148.39,271.3s-12.65-20.49-3-15.07c3.71,2.09,12,4.22,15.66-1.81-.6,6.64,1.2,15.68,3,19.3C156.82,270.1,148.39,271.3,148.39,271.3Z" transform="translate(-20.42 -233.65)"/></svg>